HIERARCHY
ROOT RootJoint
{
    OFFSET   0.000000   0.000000   0.000000
    CHANNELS 6 Xposition Yposition Zposition Xrotation Yrotation Zrotation
    JOINT pelvis_lowerback
    {
        OFFSET   0.000000   0.093605   0.000000
        CHANNELS 3 Xrotation Yrotation Zrotation
        JOINT lowerback_torso
        {
            OFFSET   0.000000   0.100000   0.000000
            CHANNELS 3 Xrotation Yrotation Zrotation
            JOINT torso_head
            {
                OFFSET   0.000000   0.282350   0.000000
                CHANNELS 3 Xrotation Yrotation Zrotation
                End Site
                {
                    OFFSET   0.000000   0.192650   0.000000
                }
            }
            JOINT rTorso_Clavicle
            {
                OFFSET  -0.001000   0.157500   0.000000
                CHANNELS 3 Xrotation Yrotation Zrotation
                JOINT rShoulder
                {
                    OFFSET  -0.117647   0.000000   0.000000
                    CHANNELS 3 Xrotation Yrotation Zrotation
                    JOINT rElbow
                    {
                        OFFSET  -0.245000   0.000000   0.000000
                        CHANNELS 3 Xrotation Yrotation Zrotation
                        JOINT rWrist
                        {
                            OFFSET  -0.240000   0.000000   0.000000
                            CHANNELS 3 Xrotation Yrotation Zrotation
                            End Site
                            {
                                OFFSET  -0.116353  -0.002500   0.000000
                            }
                        }
                    }
                }
            }
            JOINT lTorso_Clavicle
            {
                OFFSET   0.001000   0.157500   0.000000
                CHANNELS 3 Xrotation Yrotation Zrotation
                JOINT lShoulder
                {
                    OFFSET   0.117647   0.000000   0.000000
                    CHANNELS 3 Xrotation Yrotation Zrotation
                    JOINT lElbow
                    {
                        OFFSET   0.245000   0.000000   0.000000
                        CHANNELS 3 Xrotation Yrotation Zrotation
                        JOINT lWrist
                        {
                            OFFSET   0.240000   0.000000   0.000000
                            CHANNELS 3 Xrotation Yrotation Zrotation
                            End Site
                            {
                                OFFSET   0.116353  -0.002500   0.000000
                            }
                        }
                    }
                }
            }
        }
    }
    JOINT rHip
    {
        OFFSET  -0.100000  -0.051395   0.000000
        CHANNELS 3 Xrotation Yrotation Zrotation
        JOINT rKnee
        {
            OFFSET   0.000000  -0.410000   0.000000
            CHANNELS 3 Xrotation Yrotation Zrotation
            JOINT rAnkle
            {
                OFFSET   0.000000  -0.390000   0.000000
                CHANNELS 3 Xrotation Yrotation Zrotation
                JOINT rToeJoint
                {
                    OFFSET   0.000000  -0.050000   0.130000
                    CHANNELS 3 Xrotation Yrotation Zrotation
                    End Site
                    {
                        OFFSET  -0.010000   0.002000   0.060000
                    }
                }
            }
        }
    }
    JOINT lHip
    {
        OFFSET   0.100000  -0.051395   0.000000
        CHANNELS 3 Xrotation Yrotation Zrotation
        JOINT lKnee
        {
            OFFSET   0.000000  -0.410000   0.000000
            CHANNELS 3 Xrotation Yrotation Zrotation
            JOINT lAnkle
            {
                OFFSET   0.000000  -0.390000   0.000000
                CHANNELS 3 Xrotation Yrotation Zrotation
                JOINT lToeJoint
                {
                    OFFSET   0.000000  -0.050000   0.130000
                    CHANNELS 3 Xrotation Yrotation Zrotation
                    End Site
                    {
                        OFFSET   0.010000   0.002000   0.060000
                    }
                }
            }
        }
    }
}
MOTION
Frames: 10
Frame Time:   0.008333
 -2.642351   0.916922   5.571758  -5.870409  -6.553272  -1.516676  10.126585   1.644083  -0.940370   0.287310  -0.743499   0.626026  -1.490859   1.639717   0.486737   2.846739   1.842906   8.532985   8.131705  12.184059  42.657893  -0.008787  24.255778  -0.008445  11.323519   1.511610 -22.946805   1.742960  -4.610914  -8.824642   8.532212 -12.288618 -46.891682  -0.012658 -24.905794   0.002060  10.388530  -3.851722  21.842011   4.677636   0.925940   2.318747  10.289559  -0.000025   0.001319  -7.882119  -0.234377  -1.426035  -1.953152   0.000002   0.000089 -14.530853  -0.968319   3.679099  56.024990   0.001478   0.002461 -11.438024   6.164788   1.103499  -3.239189   0.000116   0.003406
 -2.642547   0.917261   5.577980  -5.866467  -6.753718  -1.284060  10.152895   1.891527  -1.046015   0.318331  -0.640036   0.435468  -1.466016   1.545918   0.524863   2.707082   2.006080   8.490075   7.809603  12.458752  42.431698  -0.009622  25.154100  -0.008457  11.361848   1.488971 -23.062673   1.859035  -4.402192  -8.871315   8.878146 -12.081268 -47.061450  -0.012499 -24.129884   0.002902  10.422254  -3.885685  21.734934   5.154160   0.992657   2.013524  10.165842  -0.000050   0.001204  -8.121739  -0.158950  -1.386811  -2.131249  -0.000009   0.000156 -15.020757  -0.868328   3.460920  54.130640   0.002424   0.003675 -11.518680   6.343678   1.202395  -3.179234   0.000165   0.002788
 -2.642692   0.917412   5.584133  -5.835993  -6.913887  -1.083864  10.172290   2.113388  -1.103923   0.341232  -0.540467   0.258012  -1.443507   1.452686   0.560718   2.555627   2.166029   8.418038   7.493749  12.728523  42.201522  -0.010239  26.010897  -0.008403  11.433651   1.561830 -23.228659   1.991249  -4.189344  -8.914897   9.221201 -11.871376 -47.227655  -0.012185 -23.391502   0.003494  10.427202  -3.849770  21.608069   5.596989   1.045500   1.744021  10.057684  -0.000073   0.001067  -8.404401  -0.094079  -1.343333  -2.255104  -0.000013   0.000165 -15.504904  -0.799620   3.294813  52.099538   0.003259   0.004355 -11.599129   6.508855   1.294823  -3.089161   0.000245   0.002338
 -2.642803   0.917408   5.590237  -5.802435  -7.042329  -0.912515  10.200184   2.330681  -1.138231   0.366759  -0.435400   0.100312  -1.422332   1.364624   0.597514   2.403511   2.322448   8.334408   7.192996  12.985002  41.973098  -0.010434  26.814036  -0.008475  11.513064   1.656547 -23.426579   2.124697  -3.982115  -8.956049   9.550108 -11.668881 -47.384977  -0.011692 -22.697317   0.003997  10.419708  -3.782819  21.473355   6.034262   1.087735   1.504597   9.957383  -0.000093   0.000931  -8.717998  -0.038393  -1.297105  -2.339336  -0.000014   0.000151 -15.998910  -0.746938   3.169130  50.126007   0.003751   0.004460 -11.676873   6.662967   1.381230  -3.002970   0.000309   0.001987
 -2.642879   0.917294   5.596319  -5.771891  -7.150161  -0.762628  10.235378   2.547994  -1.161182   0.397656  -0.323309  -0.041645  -1.401408   1.282560   0.634019   2.255732   2.473938   8.249749   6.909274  13.227660  41.753552  -0.010231  27.564747  -0.008605  11.592475   1.752864 -23.635679   2.256270  -3.781203  -8.994973   9.863258 -11.474907 -47.532626  -0.011087 -22.046144   0.004422  10.405463  -3.700202  21.339832   6.471337   1.121082   1.286235   9.866363  -0.000108   0.000806  -9.046962   0.009106  -1.248311  -2.409264  -0.000013   0.000134 -16.496325  -0.703406   3.069440  48.256377   0.003973   0.004269 -11.750683   6.806960   1.461873  -2.924514   0.000351   0.001699
 -2.642916   0.917106   5.602400  -5.744671  -7.245430  -0.629540  10.274386   2.764973  -1.178450   0.432891  -0.205387  -0.171070  -1.380793   1.206332   0.669143   2.114715   2.619596   8.169450   6.642807  13.457056  41.547023  -0.009722  28.265989  -0.008707  11.670305   1.847092 -23.843532   2.385439  -3.586412  -9.031946  10.161016 -11.289399 -47.671408  -0.010428 -21.435719   0.004750  10.386593  -3.607591  21.210012   6.907245   1.146171   1.083424   9.786404  -0.000117   0.000695  -9.377934   0.048781  -1.196923  -2.486431  -0.000013   0.000123 -16.989885  -0.665940   2.986780  46.499882   0.004013   0.003984 -11.820350   6.941517   1.537084  -2.854246   0.000374   0.001455
 -2.642913   0.916869   5.608494  -5.719402  -7.333815  -0.510284  10.314112   2.980031  -1.192816   0.470595  -0.083584  -0.289993  -1.360831   1.135555   0.702353   1.981621   2.758890   8.095961   6.393218  13.673816  41.355313  -0.009009  28.920907  -0.008724  11.746361   1.939083 -24.043682   2.511835  -3.397849  -9.067230  10.443848 -11.112321 -47.802284  -0.009749 -20.863746   0.004965  10.364340  -3.508105  21.084001   7.339715   1.163700   0.892611   9.718443  -0.000121   0.000598  -9.701560   0.081203  -1.142741  -2.585433  -0.000013   0.000124 -17.473886  -0.632869   2.915769  44.855427   0.003934   0.003712 -11.885945   7.067246   1.607207  -2.791787   0.000381   0.001245
 -2.642851   0.916547   5.614732  -5.689053  -7.478909  -0.338312  10.311383   3.168706  -1.251796   0.546611   0.003554  -0.434717  -1.325806   1.021388   0.720459   1.865953   2.895847   8.011109   6.088259  13.875325  41.152420  -0.009656  29.830769  -0.008298  11.763561   1.928236 -24.097330   2.626542  -3.118270  -9.084894  10.765767 -10.892238 -47.933186  -0.009389 -20.202158   0.005311  10.379699  -3.517529  20.956514   7.741735   1.191279   0.637721   9.725323  -0.000095   0.000472 -10.117594   0.097319  -1.081054  -2.617561  -0.000011   0.000122 -17.675993  -0.632568   2.784162  42.438923   0.005420   0.006052 -11.812626   7.061551   1.608179  -2.729530   0.000436   0.000949
 -2.642779   0.916060   5.620957  -5.637771  -7.597995  -0.200805  10.298789   3.338401  -1.279557   0.614149   0.087837  -0.568454  -1.291484   0.908962   0.737178   1.741007   3.025839   7.903072   5.791306  14.072490  40.945692  -0.010243  30.695757  -0.007838  11.809594   1.996760 -24.201671   2.758813  -2.834901  -9.092893  11.088423 -10.667642 -48.056051  -0.008986 -19.571379   0.005487  10.373237  -3.469039  20.817931   8.120442   1.208922   0.423395   9.740890  -0.000070   0.000365 -10.561935   0.107658  -1.019647  -2.616201  -0.000009   0.000097 -17.872807  -0.654454   2.691378  40.005862   0.006404   0.007763 -11.748527   7.053275   1.608817  -2.652518   0.000510   0.000707
 -2.642697   0.915453   5.627177  -5.581020  -7.686042  -0.090274  10.290060   3.501824  -1.293741   0.679047   0.174075  -0.688635  -1.259504   0.802918   0.754963   1.617319   3.148859   7.786861   5.510732  14.257524  40.740002  -0.010493  31.504931  -0.007571  11.860848   2.078563 -24.339326   2.893231  -2.559846  -9.095776  11.399738 -10.449030 -48.168763  -0.008539 -18.976802   0.005609  10.354448  -3.387734  20.679477   8.495825   1.224509   0.238989   9.756685  -0.000049   0.000282 -11.017322   0.119259  -0.957458  -2.601557  -0.000007   0.000072 -18.083414  -0.682457   2.623468  37.691978   0.006637   0.008517 -11.690266   7.045415   1.609669  -2.580920   0.000556   0.000533
